<svg version="1.1" xmlns="http://www.w3.org/2000/svg" viewBox="0 0 1328.8486184370786 450.718252212311" width="2657.697236874157" height="901.436504424622">
  <!-- svg-source:excalidraw -->
  
  <defs>
    <style class="style-fonts">
      @font-face {
        font-family: "Virgil";
        src: url("https://excalidraw.com/Virgil.woff2");
      }
      @font-face {
        font-family: "Cascadia";
        src: url("https://excalidraw.com/Cascadia.woff2");
      }
    </style>
  </defs>
  <rect x="0" y="0" width="1328.8486184370786" height="450.718252212311" fill="#fff"></rect><g stroke-linecap="round" transform="translate(371.5006393805359 10.316734582053073) rotate(0 291.5 215.00000000000006)"><path d="M32 0 M32 0 C151.64 -0.31, 271.29 -0.1, 551 0 M32 0 C199.2 1.06, 365.98 1.31, 551 0 M551 0 C571.66 -0.87, 583.68 12.52, 583 32 M551 0 C571.05 -1.85, 584.67 10.65, 583 32 M583 32 C585.73 143.4, 583.95 253.74, 583 398 M583 32 C582.99 166.69, 582.87 301.63, 583 398 M583 398 C583.7 419.99, 571.35 431.66, 551 430 M583 398 C582.51 420.28, 571.11 430.28, 551 430 M551 430 C393.27 429.16, 235.36 429.86, 32 430 M551 430 C436.27 430.28, 321.52 429.95, 32 430 M32 430 C12.25 428.1, 1.4 420.58, 0 398 M32 430 C10.89 427.94, 0.38 420.63, 0 398 M0 398 C-0.35 271.92, -1.92 146.32, 0 32 M0 398 C-0.65 268.36, -1.21 140.15, 0 32 M0 32 C-0.05 9.11, 10.58 -1.62, 32 0 M0 32 C-0.91 9.29, 9.21 1.33, 32 0" stroke="#000000" stroke-width="1" fill="none"></path></g><g transform="translate(604.8966583624695 28.877221235554657) rotate(0 58.103981018066406 21.599999999999966)"><text x="58.103981018066406" y="0" font-family="Virgil, Segoe UI Emoji" font-size="36px" fill="#000000" text-anchor="middle" style="white-space: pre;" direction="ltr" dominant-baseline="text-before-edge">Ponder</text></g><g transform="translate(462.7340607839133 230.058607386851) rotate(0 29.58997344970703 24)"><text x="29.58997344970703" y="0" font-family="Virgil, Segoe UI Emoji" font-size="20px" fill="#000000" text-anchor="middle" style="white-space: pre;" direction="ltr" dominant-baseline="text-before-edge">Entity</text><text x="29.58997344970703" y="24" font-family="Virgil, Segoe UI Emoji" font-size="20px" fill="#000000" text-anchor="middle" style="white-space: pre;" direction="ltr" dominant-baseline="text-before-edge">data</text></g><g stroke-linecap="round" transform="translate(417.29275092725044 113.0193767975586) rotate(0 119.5 46.5)"><path d="M23.25 0 M23.25 0 C76.69 -0.78, 128.19 -1.51, 215.75 0 M23.25 0 C69.09 1.95, 115.02 1.01, 215.75 0 M215.75 0 C231.26 -0.53, 239.16 8.97, 239 23.25 M215.75 0 C229.91 -1.56, 237.43 6.06, 239 23.25 M239 23.25 C238.2 36.2, 239.47 45.98, 239 69.75 M239 23.25 C239.51 35.49, 239.57 47.77, 239 69.75 M239 69.75 C238.2 84.42, 232.26 94.85, 215.75 93 M239 69.75 C236.81 83.04, 229.37 94.38, 215.75 93 M215.75 93 C150.39 93.19, 82.68 89.92, 23.25 93 M215.75 93 C157.6 94.54, 99.99 95.2, 23.25 93 M23.25 93 C7.71 94.68, -1.25 85.25, 0 69.75 M23.25 93 C7.37 91.01, 0.79 84.85, 0 69.75 M0 69.75 C0.39 54.8, -1.52 36.74, 0 23.25 M0 69.75 C-0.3 56.77, -1.2 45.93, 0 23.25 M0 23.25 C-1.81 9.68, 9.4 -0.88, 23.25 0 M0 23.25 C0.52 6.52, 7.02 1.84, 23.25 0" stroke="#000000" stroke-width="1" fill="none"></path></g><g transform="translate(435.20879706982856 142.71937679755865) rotate(0 101.58395385742188 16.799999999999955)"><text x="101.58395385742188" y="0" font-family="Virgil, Segoe UI Emoji" font-size="28px" fill="#000000" text-anchor="middle" style="white-space: pre;" direction="ltr" dominant-baseline="text-before-edge">Event handlers</text></g><g stroke-linecap="round" transform="translate(10 10) rotate(0 118.00000000000003 214.45763999795645)"><path d="M32 0 M32 0 C68.4 3.36, 103.52 -0.3, 204 0 M32 0 C74.27 0.06, 115.61 -0.1, 204 0 M204 0 C226.59 -1.89, 235.26 11.92, 236 32 M204 0 C225.38 0.69, 236.66 10.3, 236 32 M236 32 C236.54 115.53, 236.04 198.37, 236 396.92 M236 32 C235.13 167.66, 235.45 303.94, 236 396.92 M236 396.92 C237.41 417.22, 227 427.79, 204 428.92 M236 396.92 C238.19 416.83, 227.27 428.34, 204 428.92 M204 428.92 C156.65 430.3, 111.31 427.25, 32 428.92 M204 428.92 C164 429.13, 124.07 428.73, 32 428.92 M32 428.92 C11.94 428.72, 0.92 417.74, 0 396.92 M32 428.92 C12.53 430.9, -2.03 418.16, 0 396.92 M0 396.92 C-2.61 308.53, -1.74 222.2, 0 32 M0 396.92 C1.09 271.11, 1.15 146.19, 0 32 M0 32 C1.02 9.31, 11.49 -1.61, 32 0 M0 32 C-1.32 12.71, 8.39 -2.27, 32 0" stroke="#000000" stroke-width="1" fill="none"></path></g><g transform="translate(41.453859685848954 32.079455637069714) rotate(0 87.87596893310547 21.600000000000023)"><text x="87.87596893310547" y="0" font-family="Virgil, Segoe UI Emoji" font-size="36px" fill="#000000" text-anchor="middle" style="white-space: pre;" direction="ltr" dominant-baseline="text-before-edge">Blockchain</text></g><g stroke-linecap="round"><g transform="translate(245.4230687612698 159.14811149720276) rotate(0 84.84398371985026 1.3456291379558252)"><path d="M-0.4 1.91 C62.87 0.33, 121.86 -0.46, 168.64 2.24 M-0.1 0.9 C55.79 -0.05, 110.35 0.66, 170.09 1.56" stroke="#000000" stroke-width="1" fill="none"></path></g><g transform="translate(245.4230687612698 159.14811149720276) rotate(0 84.84398371985026 1.3456291379558252)"><path d="M141.36 13.34 C153.21 7.79, 160.72 2.75, 168.66 1.97 M141.66 12.33 C151.47 8.28, 159.98 5.18, 170.12 1.29" stroke="#000000" stroke-width="1" fill="none"></path></g><g transform="translate(245.4230687612698 159.14811149720276) rotate(0 84.84398371985026 1.3456291379558252)"><path d="M141.64 -7.18 C153.3 -5.28, 160.72 -2.86, 168.66 1.97 M141.94 -8.19 C151.73 -5.57, 160.15 -2, 170.12 1.29" stroke="#000000" stroke-width="1" fill="none"></path></g></g><mask></mask><g transform="translate(262.96253492993816 171.05950282497247) rotate(0 46.62995910644531 36)"><text x="46.62995910644531" y="0" font-family="Virgil, Segoe UI Emoji" font-size="20px" fill="#000000" text-anchor="middle" style="white-space: pre;" direction="ltr" dominant-baseline="text-before-edge">Raw</text><text x="46.62995910644531" y="24" font-family="Virgil, Segoe UI Emoji" font-size="20px" fill="#000000" text-anchor="middle" style="white-space: pre;" direction="ltr" dominant-baseline="text-before-edge">blockchain</text><text x="46.62995910644531" y="48" font-family="Virgil, Segoe UI Emoji" font-size="20px" fill="#000000" text-anchor="middle" style="white-space: pre;" direction="ltr" dominant-baseline="text-before-edge">data</text></g><g stroke-linecap="round" transform="translate(418.8201018723184 302.22630462631173) rotate(0 244.99999999999994 46.5)"><path d="M23.25 0 M23.25 0 C114.79 0.78, 205.72 1, 466.75 0 M23.25 0 C123.45 2.02, 222.61 1.14, 466.75 0 M466.75 0 C480.39 -1.38, 491.44 7.15, 490 23.25 M466.75 0 C484.28 0.57, 489.64 5.71, 490 23.25 M490 23.25 C488.27 39.2, 489.08 58.75, 490 69.75 M490 23.25 C490.84 36.47, 491.16 49.64, 490 69.75 M490 69.75 C490.39 86.77, 480.39 94.48, 466.75 93 M490 69.75 C488.07 86.95, 484.34 94.6, 466.75 93 M466.75 93 C296.03 95.05, 125.68 94.13, 23.25 93 M466.75 93 C309.27 93.03, 151.45 93.05, 23.25 93 M23.25 93 C7.75 91.43, -0.26 84.82, 0 69.75 M23.25 93 C5.95 92.99, 2.3 83.4, 0 69.75 M0 69.75 C-0.49 56.69, -1.63 45.56, 0 23.25 M0 69.75 C0.64 59.43, -0.68 48.91, 0 23.25 M0 23.25 C-1.7 9.14, 6.69 -0.78, 23.25 0 M0 23.25 C-1.85 6.42, 8.21 1.18, 23.25 0" stroke="#000000" stroke-width="1" fill="none"></path></g><g transform="translate(578.4481460007364 331.9263046263118) rotate(0 85.37195587158197 16.799999999999955)"><text x="85.37195587158203" y="0" font-family="Virgil, Segoe UI Emoji" font-size="28px" fill="#000000" text-anchor="middle" style="white-space: pre;" direction="ltr" dominant-baseline="text-before-edge">Entity store</text></g><g stroke-linecap="round"><g transform="translate(553.2318725831988 207.29673521420955) rotate(0 -0.2767154797911644 47.83792011533694)"><path d="M0.99 1.88 C-2.18 21.08, -1.15 41.59, -1.55 94.29 M0.15 0.16 C0.58 20.35, 0.14 39.88, 0.58 95.52" stroke="#000000" stroke-width="1" fill="none"></path></g><g transform="translate(553.2318725831988 207.29673521420955) rotate(0 -0.2767154797911644 47.83792011533694)"><path d="M-8.83 69.26 C-9.29 74.29, -6.07 80.71, -0.97 94.97 M-9.67 67.54 C-7.71 73.63, -5.95 79.13, 1.16 96.2" stroke="#000000" stroke-width="1" fill="none"></path></g><g transform="translate(553.2318725831988 207.29673521420955) rotate(0 -0.2767154797911644 47.83792011533694)"><path d="M11.69 69.16 C6.89 74.37, 5.78 80.81, -0.97 94.97 M10.85 67.43 C8.5 73.69, 5.94 79.2, 1.16 96.2" stroke="#000000" stroke-width="1" fill="none"></path></g></g><mask></mask><g stroke-linecap="round" transform="translate(1085.786601228682 13.83306949408859) rotate(0 116.53100860419829 213.4425913591112)"><path d="M32 0 M32 0 C97.04 1.34, 163.08 -0.91, 201.06 0 M32 0 C69.76 -1.76, 107.82 -0.55, 201.06 0 M201.06 0 C224.12 1.96, 234.06 8.95, 233.06 32 M201.06 0 C220.78 1.51, 233.5 11.23, 233.06 32 M233.06 32 C232.01 156.41, 231.26 282.41, 233.06 394.89 M233.06 32 C233.24 141.46, 233.13 250.47, 233.06 394.89 M233.06 394.89 C234.54 415, 223.7 426.18, 201.06 426.89 M233.06 394.89 C234.25 416.07, 221.32 426.35, 201.06 426.89 M201.06 426.89 C146.56 427.41, 93.47 426.7, 32 426.89 M201.06 426.89 C148.37 427.81, 97.55 428.33, 32 426.89 M32 426.89 C11.49 427.05, -1.5 416.94, 0 394.89 M32 426.89 C10.84 426.39, 0.01 413.96, 0 394.89 M0 394.89 C0.88 277.67, 1.27 158.03, 0 32 M0 394.89 C0.41 287.34, 0.7 178.27, 0 32 M0 32 C0.9 9.86, 10.87 -1.72, 32 0 M0 32 C2.12 9.5, 9.66 1.93, 32 0" stroke="#000000" stroke-width="1" fill="none"></path></g><g transform="translate(1109.330778153081 32.860723689191786) rotate(0 91.76395416259766 21.599999999999966)"><text x="91.76395416259766" y="0" font-family="Virgil, Segoe UI Emoji" font-size="36px" fill="#000000" text-anchor="middle" style="white-space: pre;" direction="ltr" dominant-baseline="text-before-edge">Application</text></g><g transform="translate(968.2199484867956 178.66949516258614) rotate(0 50.979949951171875 24)"><text x="50.979949951171875" y="0" font-family="Virgil, Segoe UI Emoji" font-size="20px" fill="#000000" text-anchor="middle" style="white-space: pre;" direction="ltr" dominant-baseline="text-before-edge">Application</text><text x="50.979949951171875" y="24" font-family="Virgil, Segoe UI Emoji" font-size="20px" fill="#000000" text-anchor="middle" style="white-space: pre;" direction="ltr" dominant-baseline="text-before-edge">data</text></g><g stroke-linecap="round"><g transform="translate(915.4907833614609 162.76871451020884) rotate(0 85.06795595067751 0.22557096547063793)"><path d="M0.91 0.4 C37.88 0.54, 73.77 2.86, 167.36 -0.71 M0.29 -0.16 C60.62 -0.02, 122.21 -0.93, 169.85 -0.81" stroke="#000000" stroke-width="1" fill="none"></path></g><g transform="translate(915.4907833614609 162.76871451020884) rotate(0 85.06795595067751 0.22557096547063793)"><path d="M142.59 9.92 C149.44 6.52, 155.15 6.63, 167.95 -1.54 M141.97 9.36 C151.16 6.17, 161.6 1.51, 170.44 -1.64" stroke="#000000" stroke-width="1" fill="none"></path></g><g transform="translate(915.4907833614609 162.76871451020884) rotate(0 85.06795595067751 0.22557096547063793)"><path d="M142.54 -10.6 C149.28 -9.61, 155.01 -5.11, 167.95 -1.54 M141.92 -11.16 C151.13 -6.91, 161.59 -4.13, 170.44 -1.64" stroke="#000000" stroke-width="1" fill="none"></path></g></g><mask></mask><g stroke-linecap="round" transform="translate(1120.117629682928 125.25742703050969) rotate(0 81.5 51.5)"><path d="M-1.02 -0.93 C65.93 0.26, 128.8 -1.04, 162.23 -1.36 M0.32 0.67 C54.64 -0.21, 108.82 -1.1, 162.09 0.6 M164.95 1.8 C163.76 23.66, 162.03 47.93, 163.8 102.89 M163.7 0.59 C162.65 27.14, 163 55.98, 162.79 102.18 M164.02 101.66 C99.07 104.12, 36.51 104.21, 0.18 103.76 M162.68 104 C125.24 100.63, 85.05 101.75, 0.22 103.43 M0.79 102.87 C1.95 78.75, 1.21 56.53, -1.02 1.81 M0.29 103.08 C-1.66 79.06, -0.02 54.64, 0.44 0.81" stroke="#000000" stroke-width="1" fill="none"></path></g><g transform="translate(1150.167647993475 159.95742703050973) rotate(0 51.449981689453125 16.799999999999955)"><text x="51.449981689453125" y="0" font-family="Virgil, Segoe UI Emoji" font-size="28px" fill="#000000" text-anchor="middle" style="white-space: pre;" direction="ltr" dominant-baseline="text-before-edge">Website</text></g><g stroke-linecap="round" transform="translate(696.0001383928857 112.63567984672) rotate(0 109 46.5)"><path d="M23.25 0 M23.25 0 C64.8 3.19, 108.59 1.88, 194.75 0 M23.25 0 C81.54 0.73, 138.74 -0.44, 194.75 0 M194.75 0 C210.49 0.43, 217.49 8.34, 218 23.25 M194.75 0 C210.34 -2, 217.48 9.54, 218 23.25 M218 23.25 C216.12 40.07, 218.95 57.72, 218 69.75 M218 23.25 C218.39 42.02, 218.98 59.91, 218 69.75 M218 69.75 C219.31 86.19, 210.65 93.44, 194.75 93 M218 69.75 C217.96 84.53, 210.08 94.91, 194.75 93 M194.75 93 C146.43 92.26, 98.34 93.12, 23.25 93 M194.75 93 C159.8 94.58, 124.81 93.67, 23.25 93 M23.25 93 C8.91 91.47, -1.1 84.27, 0 69.75 M23.25 93 C5.46 91.32, -0.09 86.97, 0 69.75 M0 69.75 C-1.29 55.16, -2.19 45.76, 0 23.25 M0 69.75 C0.64 57.81, -0.33 45.6, 0 23.25 M0 23.25 C0.44 7.47, 9.64 1.91, 23.25 0 M0 23.25 C-1 8.26, 5.94 1.27, 23.25 0" stroke="#000000" stroke-width="1" fill="none"></path></g><g transform="translate(713.4541789202294 142.33567984672004) rotate(0 91.54595947265625 16.799999999999955)"><text x="91.54595947265625" y="0" font-family="Virgil, Segoe UI Emoji" font-size="28px" fill="#000000" text-anchor="middle" style="white-space: pre;" direction="ltr" dominant-baseline="text-before-edge">GraphQL API</text></g><g stroke-linecap="round"><g transform="translate(826.5847581218643 298.9073895548115) rotate(0 -0.22429411632833762 -45.21480996576713)"><path d="M-1.43 0 C-0.52 -30.98, 0.8 -59.67, -0.72 -89.69 M0.91 -0.56 C1.26 -23.86, 0.2 -50, -0.99 -90.43" stroke="#000000" stroke-width="1" fill="none"></path></g><g transform="translate(826.5847581218643 298.9073895548115) rotate(0 -0.22429411632833762 -45.21480996576713)"><path d="M8.7 -62.56 C5.93 -73.21, 3.71 -81.62, -1.59 -89.41 M11.04 -63.13 C8.16 -69.29, 4.11 -78.37, -1.86 -90.15" stroke="#000000" stroke-width="1" fill="none"></path></g><g transform="translate(826.5847581218643 298.9073895548115) rotate(0 -0.22429411632833762 -45.21480996576713)"><path d="M-11.82 -61.94 C-7.96 -72.9, -3.57 -81.51, -1.59 -89.41 M-9.47 -62.5 C-6.78 -68.96, -5.26 -78.21, -1.86 -90.15" stroke="#000000" stroke-width="1" fill="none"></path></g></g><mask></mask><g stroke-linecap="round" transform="translate(1122.3912414314625 281.1323014161417) rotate(0 82 51.5)"><path d="M-0.51 1.21 C56.61 -2.78, 115.06 0.64, 163.92 -1.62 M-0.86 -0.34 C35.95 -1.69, 71.02 0.2, 163.67 0.93 M165.06 0.33 C164.1 31.64, 162.56 64.63, 162.21 102.84 M163.19 0 C164.04 23.57, 163.59 47.1, 163.95 103.04 M165.71 104.77 C124.08 102.02, 84.64 102.32, 1.25 104.98 M163.87 102.75 C126.71 104.18, 89.8 103.98, -0.9 102.92 M1 101.86 C-1.32 71.58, 0.94 38.8, -1.57 -1.12 M-0.12 102.65 C0.12 70.24, -1.18 36.77, 0.3 0.5" stroke="#000000" stroke-width="1" fill="none"></path></g><g transform="translate(1134.2512725593922 315.8323014161417) rotate(0 70.13996887207031 16.799999999999955)"><text x="70.13996887207031" y="0" font-family="Virgil, Segoe UI Emoji" font-size="28px" fill="#000000" text-anchor="middle" style="white-space: pre;" direction="ltr" dominant-baseline="text-before-edge">Mobile app</text></g><g stroke-linecap="round" transform="translate(49.89870956520298 128.96934689707064) rotate(0 78.5 51.5)"><path d="M0.24 1.17 C52.14 1.43, 106.86 0.59, 158.72 0.08 M-0.35 -0.62 C55.6 -1.17, 109.48 -0.24, 157.96 -0.77 M155.14 1.78 C157.43 30.57, 155.62 57.06, 157.41 104.12 M156.22 -0.23 C157 27.55, 156.51 54.65, 156.94 102.59 M157.25 103.67 C124.34 103.93, 89.59 103.44, 1.91 104.5 M156.72 103.84 C123.58 102.97, 89.34 103.21, -0.04 102.59 M0.98 102.7 C-0.66 73.8, 0.8 47.37, 0.34 -0.5 M-0.52 103.47 C0.12 80.94, 0.01 57.78, 0.78 -0.09" stroke="#000000" stroke-width="1" fill="none"></path></g><g transform="translate(68.87073257545688 146.86934689707073) rotate(0 59.527976989746094 33.60000000000002)"><text x="59.527976989746094" y="0" font-family="Virgil, Segoe UI Emoji" font-size="28px" fill="#000000" text-anchor="middle" style="white-space: pre;" direction="ltr" dominant-baseline="text-before-edge">Smart </text><text x="59.527976989746094" y="33.6" font-family="Virgil, Segoe UI Emoji" font-size="28px" fill="#000000" text-anchor="middle" style="white-space: pre;" direction="ltr" dominant-baseline="text-before-edge">contract</text></g><g stroke-linecap="round" transform="translate(48.23730207173219 284.880339793483) rotate(0 78.49999999999997 51.5)"><path d="M0.09 0.72 C35.38 1.37, 67.07 2.37, 155.98 -1.52 M0.94 -0.1 C54.22 1.3, 109.43 1.8, 156.18 0.56 M157.69 -0.37 C158.8 26.11, 157.48 56.99, 157.16 104.27 M157.41 -0.31 C156.48 26.96, 155.92 54.17, 156.04 103.15 M157.73 103.82 C113.33 102.15, 69.52 102.72, -0.92 102.23 M156.97 103.64 C114.54 102.23, 72.43 102.17, 0.93 102.03 M-1.39 103.44 C0.7 72.68, 2.52 40.68, -0.34 0.1 M0.75 102.42 C0.38 64.91, 0.02 27.23, -0.02 -0.43" stroke="#000000" stroke-width="1" fill="none"></path></g><g transform="translate(67.2093250819861 302.7803397934831) rotate(0 59.527976989746065 33.60000000000002)"><text x="59.527976989746094" y="0" font-family="Virgil, Segoe UI Emoji" font-size="28px" fill="#000000" text-anchor="middle" style="white-space: pre;" direction="ltr" dominant-baseline="text-before-edge">Smart </text><text x="59.527976989746094" y="33.6" font-family="Virgil, Segoe UI Emoji" font-size="28px" fill="#000000" text-anchor="middle" style="white-space: pre;" direction="ltr" dominant-baseline="text-before-edge">contract</text></g><g transform="translate(704.808022634174 230.8008685916684) rotate(0 50.979949951171875 24)"><text x="50.979949951171875" y="0" font-family="Virgil, Segoe UI Emoji" font-size="20px" fill="#000000" text-anchor="middle" style="white-space: pre;" direction="ltr" dominant-baseline="text-before-edge">Application</text><text x="50.979949951171875" y="24" font-family="Virgil, Segoe UI Emoji" font-size="20px" fill="#000000" text-anchor="middle" style="white-space: pre;" direction="ltr" dominant-baseline="text-before-edge">data</text></g></svg>