<svg version="1.1" xmlns="http://www.w3.org/2000/svg" viewBox="0 0 1328.8486184370786 450.7182522123114" width="3986.5458553112358" height="1352.1547566369343">
  <!-- svg-source:excalidraw -->
  
  <defs>
    <style class="style-fonts">
      @font-face {
        font-family: "Virgil";
        src: url("https://excalidraw.com/Virgil.woff2");
      }
      @font-face {
        font-family: "Cascadia";
        src: url("https://excalidraw.com/Cascadia.woff2");
      }
    </style>
    
  </defs>
    <rect x="0" y="0" width="1328.8486184370786" height="450.718252212311" fill="#fff"></rect>
  <g stroke-linecap="round" transform="translate(353.3408475266772 10.316734582052959) rotate(0 305.47710371802754 215)"><path d="M32 0 C199.76 -0.55, 367.3 -0.28, 578.95 0 M32 0 C184.03 -2.38, 336.61 -2.03, 578.95 0 M578.95 0 C598.54 1.5, 610.07 11.01, 610.95 32 M578.95 0 C602.35 1.11, 609.31 12.31, 610.95 32 M610.95 32 C609.46 150.68, 611.02 270.61, 610.95 398 M610.95 32 C611.7 171.64, 611.72 311.77, 610.95 398 M610.95 398 C612.22 419.67, 599.77 429.5, 578.95 430 M610.95 398 C611.69 420.63, 599.41 430.78, 578.95 430 M578.95 430 C445.89 431.41, 313.77 431.88, 32 430 M578.95 430 C453.22 429.49, 327.51 430.15, 32 430 M32 430 C11.26 430.52, -1.9 420.12, 0 398 M32 430 C11.64 431.81, 1.08 418.57, 0 398 M0 398 C-1.87 289.91, -2.28 184.12, 0 32 M0 398 C-0.44 320.94, -0.23 243.99, 0 32 M0 32 C-0.27 9.5, 8.79 -1.82, 32 0 M0 32 C1.15 9.19, 10.1 -0.69, 32 0" stroke="#000000" stroke-width="1" fill="none"></path></g><g transform="translate(604.8966583624697 28.877221235554316) rotate(0 58.103981018066406 21.599999999999994)"><text x="58.103981018066406" y="0" font-family="Virgil, Segoe UI Emoji" font-size="36px" fill="#000000" text-anchor="middle" style="white-space: pre;" direction="ltr" dominant-baseline="text-before-edge">Ponder</text></g><g stroke-linecap="round" transform="translate(389.50556474841096 112.31411736098903) rotate(0 140.65046738707417 46.5)"><path d="M23.25 0 C85.95 1.62, 151.26 -0.46, 258.05 0 M23.25 0 C112.04 0.07, 198.71 0.26, 258.05 0 M258.05 0 C274.1 -0.25, 281.85 5.8, 281.3 23.25 M258.05 0 C271.28 0.63, 279.05 9.65, 281.3 23.25 M281.3 23.25 C279.93 39.37, 280.11 53.41, 281.3 69.75 M281.3 23.25 C281.5 38.55, 280.8 53.06, 281.3 69.75 M281.3 69.75 C280.15 85.54, 274.64 91.87, 258.05 93 M281.3 69.75 C281.93 85.38, 275.52 91.39, 258.05 93 M258.05 93 C163.66 93.88, 73.47 93.79, 23.25 93 M258.05 93 C181.84 94.44, 105.31 93.5, 23.25 93 M23.25 93 C7.62 94.88, -0.49 85.7, 0 69.75 M23.25 93 C6.58 92.76, 1.91 83.19, 0 69.75 M0 69.75 C-0.72 55.14, -0.71 41.35, 0 23.25 M0 69.75 C0.94 57.88, 0.19 47, 0 23.25 M0 23.25 C0.53 9.03, 7.34 1.51, 23.25 0 M0 23.25 C-0.21 9.41, 8.77 0.78, 23.25 0" stroke="#000000" stroke-width="1" fill="none"></path></g><g transform="translate(407.6841006779657 142.01411736098902) rotate(0 122.47193145751953 16.799999999999983)"><text x="122.47193145751953" y="0" font-family="Virgil, Segoe UI Emoji" font-size="28px" fill="#000000" text-anchor="middle" style="white-space: pre;" direction="ltr" dominant-baseline="text-before-edge">Indexing functions</text></g><g stroke-linecap="round" transform="translate(10 10) rotate(0 118 214.45763999795645)"><path d="M32 0 C91.29 0.62, 147.92 3.3, 204 0 M32 0 C92.2 -1.35, 152.13 -2.2, 204 0 M204 0 C223.36 0.55, 234.05 12.32, 236 32 M204 0 C225.58 0.03, 237.84 9.09, 236 32 M236 32 C234.85 171.67, 234.32 312.4, 236 396.92 M236 32 C234.77 162.09, 235.47 291.65, 236 396.92 M236 396.92 C236.55 418.36, 227.04 427.52, 204 428.92 M236 396.92 C238.21 418.06, 225.68 427, 204 428.92 M204 428.92 C147 427.52, 89.73 430.27, 32 428.92 M204 428.92 C138.78 429.29, 73.44 428.57, 32 428.92 M32 428.92 C9.65 428.71, 1.66 416.45, 0 396.92 M32 428.92 C10.73 430.78, -1.42 417.85, 0 396.92 M0 396.92 C-0.35 296.17, -0.76 198.4, 0 32 M0 396.92 C0.73 311.29, 0.43 225.34, 0 32 M0 32 C-0.18 12.11, 11.55 0.68, 32 0 M0 32 C2.2 11.95, 8.87 1.19, 32 0" stroke="#000000" stroke-width="1" fill="none"></path></g><g transform="translate(41.45385968584924 32.07945563707017) rotate(0 87.87596893310547 21.599999999999994)"><text x="87.87596893310547" y="0" font-family="Virgil, Segoe UI Emoji" font-size="36px" fill="#000000" text-anchor="middle" style="white-space: pre;" direction="ltr" dominant-baseline="text-before-edge">Blockchain</text></g><g stroke-linecap="round"><g transform="translate(245.74994317534333 160.35334124527674) rotate(0 70.9735495692471 0.00580332587128396)"><path d="M0 0 C36.46 -0.39, 72.85 -0.1, 141.95 0 M0 0 C40.69 0.24, 81.53 0.32, 141.95 0" stroke="#000000" stroke-width="1" fill="none"></path></g><g transform="translate(245.74994317534333 160.35334124527674) rotate(0 70.9735495692471 0.00580332587128396)"><path d="M113.79 10.37 C121.13 7.47, 128.4 5.1, 141.95 0 M113.79 10.37 C121.75 7.46, 129.85 4.56, 141.95 0" stroke="#000000" stroke-width="1" fill="none"></path></g><g transform="translate(245.74994317534333 160.35334124527674) rotate(0 70.9735495692471 0.00580332587128396)"><path d="M113.72 -10.16 C121.08 -7.8, 128.37 -4.92, 141.95 0 M113.72 -10.16 C121.7 -7.16, 129.82 -4.16, 141.95 0" stroke="#000000" stroke-width="1" fill="none"></path></g></g><mask></mask><g transform="translate(252.5873884170269 173.4448992125558) rotate(0 46.62995910644531 36)"><text x="46.62995910644531" y="0" font-family="Virgil, Segoe UI Emoji" font-size="20px" fill="#000000" text-anchor="middle" style="white-space: pre;" direction="ltr" dominant-baseline="text-before-edge">Raw</text><text x="46.62995910644531" y="24" font-family="Virgil, Segoe UI Emoji" font-size="20px" fill="#000000" text-anchor="middle" style="white-space: pre;" direction="ltr" dominant-baseline="text-before-edge">blockchain</text><text x="46.62995910644531" y="48" font-family="Virgil, Segoe UI Emoji" font-size="20px" fill="#000000" text-anchor="middle" style="white-space: pre;" direction="ltr" dominant-baseline="text-before-edge">data</text></g><g stroke-linecap="round" transform="translate(418.6588270612192 302.2263046263115) rotate(0 245 46.5)"><path d="M23.25 0 C124.48 -0.34, 225 -1.58, 466.75 0 M23.25 0 C168.56 -1.81, 314.16 -2.15, 466.75 0 M466.75 0 C483.92 -1.19, 491.26 8.09, 490 23.25 M466.75 0 C481.65 -0.58, 490.74 9.04, 490 23.25 M490 23.25 C490.45 36.52, 489.03 48.15, 490 69.75 M490 23.25 C491.36 37.39, 490.55 50.86, 490 69.75 M490 69.75 C490.69 86.92, 482.84 93.52, 466.75 93 M490 69.75 C487.82 86.15, 483.23 94.81, 466.75 93 M466.75 93 C313.86 92.62, 159.33 92.36, 23.25 93 M466.75 93 C338.36 91.43, 209.63 90.95, 23.25 93 M23.25 93 C7.21 92.67, -0.27 84.08, 0 69.75 M23.25 93 C5.59 90.91, 1.15 83.77, 0 69.75 M0 69.75 C1.42 56.53, 1.65 43.96, 0 23.25 M0 69.75 C0.75 53, -0.99 35.66, 0 23.25 M0 23.25 C1.36 6.91, 9.58 0.69, 23.25 0 M0 23.25 C-2.01 9.37, 9.1 1.97, 23.25 0" stroke="#000000" stroke-width="1" fill="none"></path></g><g transform="translate(594.442846531434 331.92630462631155) rotate(0 69.21598052978516 16.80000000000001)"><text x="69.21598052978516" y="0" font-family="Virgil, Segoe UI Emoji" font-size="28px" fill="#000000" text-anchor="middle" style="white-space: pre;" direction="ltr" dominant-baseline="text-before-edge">Database</text></g><g stroke-linecap="round"><g transform="translate(530.8553924028517 206.59147577763974) rotate(0 0.07432672650065797 47.348416818931014)"><path d="M0 0 C-0.05 30.72, 0.1 62.03, 0 94.7 M0 0 C0.23 28.43, 0.2 57.06, 0 94.7" stroke="#000000" stroke-width="1" fill="none"></path></g><g transform="translate(530.8553924028517 206.59147577763974) rotate(0 0.07432672650065797 47.348416818931014)"><path d="M-10.14 66.46 C-6.78 75.44, -3.31 84.99, 0 94.7 M-10.14 66.46 C-6.94 74.89, -3.91 83.5, 0 94.7" stroke="#000000" stroke-width="1" fill="none"></path></g><g transform="translate(530.8553924028517 206.59147577763974) rotate(0 0.07432672650065797 47.348416818931014)"><path d="M10.38 66.55 C7.02 75.47, 3.78 84.99, 0 94.7 M10.38 66.55 C7.4 74.93, 4.25 83.52, 0 94.7" stroke="#000000" stroke-width="1" fill="none"></path></g></g><mask></mask><g stroke-linecap="round" transform="translate(1085.7866012286822 10.447339616776844) rotate(0 116.53100860419823 215.1354562977673)"><path d="M32 0 C67.66 1.87, 100.03 3.25, 201.06 0 M32 0 C71.74 1.18, 109.95 0.76, 201.06 0 M201.06 0 C223.04 1.13, 232.3 11.34, 233.06 32 M201.06 0 C221.07 0.34, 234.32 9.37, 233.06 32 M233.06 32 C232.32 153.1, 233.09 271.99, 233.06 398.27 M233.06 32 C234.03 111.54, 233.26 191, 233.06 398.27 M233.06 398.27 C233.91 421.18, 223.33 429.61, 201.06 430.27 M233.06 398.27 C232.91 421.77, 221.83 430.79, 201.06 430.27 M201.06 430.27 C157.12 431.73, 118.38 430.44, 32 430.27 M201.06 430.27 C153.12 429.4, 104.5 429.08, 32 430.27 M32 430.27 C11.66 428.99, -0.49 419, 0 398.27 M32 430.27 C11.27 431.74, -0.47 421.34, 0 398.27 M0 398.27 C-1.22 292.86, -0.95 184.11, 0 32 M0 398.27 C-0.98 269.62, -2.09 140.98, 0 32 M0 32 C1.17 12.38, 10.89 -1.32, 32 0 M0 32 C1.26 10.82, 11.16 0.84, 32 0" stroke="#000000" stroke-width="1" fill="none"></path></g><g transform="translate(1109.3307781530812 32.86072368919213) rotate(0 91.76395416259766 21.599999999999994)"><text x="91.76395416259766" y="0" font-family="Virgil, Segoe UI Emoji" font-size="36px" fill="#000000" text-anchor="middle" style="white-space: pre;" direction="ltr" dominant-baseline="text-before-edge">Application</text></g><g transform="translate(972.7299688206464 177.30700564309518) rotate(0 50.979949951171875 24)"><text x="50.979949951171875" y="0" font-family="Virgil, Segoe UI Emoji" font-size="20px" fill="#000000" text-anchor="middle" style="white-space: pre;" direction="ltr" dominant-baseline="text-before-edge">Application</text><text x="50.979949951171875" y="24" font-family="Virgil, Segoe UI Emoji" font-size="20px" fill="#000000" text-anchor="middle" style="white-space: pre;" direction="ltr" dominant-baseline="text-before-edge">data</text></g><g stroke-linecap="round"><g transform="translate(931.9556245085406 158.07872923912691) rotate(0 75.91833297668393 -0.16597520083479367)"><path d="M0 0 C57.51 -0.11, 115.4 -0.47, 151.84 -0.28 M0 0 C41.69 -0.15, 83.41 -0.25, 151.84 -0.28" stroke="#000000" stroke-width="1" fill="none"></path></g><g transform="translate(931.9556245085406 158.07872923912691) rotate(0 75.91833297668393 -0.16597520083479367)"><path d="M123.65 10 C134.2 6.25, 145.12 2.08, 151.84 -0.28 M123.65 10 C131.34 7.2, 139.06 4.35, 151.84 -0.28" stroke="#000000" stroke-width="1" fill="none"></path></g><g transform="translate(931.9556245085406 158.07872923912691) rotate(0 75.91833297668393 -0.16597520083479367)"><path d="M123.64 -10.52 C134.17 -6.48, 145.1 -2.85, 151.84 -0.28 M123.64 -10.52 C131.34 -7.68, 139.07 -4.89, 151.84 -0.28" stroke="#000000" stroke-width="1" fill="none"></path></g></g><mask></mask><g stroke-linecap="round" transform="translate(1120.117629682928 125.25742703050946) rotate(0 81.5 51.5)"><path d="M0 0 C62.87 -1.55, 124.57 -0.39, 163 0 M0 0 C57.49 -0.4, 116.68 -1.11, 163 0 M163 0 C161.66 35.64, 162.9 67.74, 163 103 M163 0 C163.65 22.58, 162.41 45.04, 163 103 M163 103 C106.52 103.64, 53.24 103.27, 0 103 M163 103 C111.25 101.93, 57.87 103.64, 0 103 M0 103 C-0.16 78.18, -0.99 52.01, 0 0 M0 103 C-0.76 81.15, -0.25 60.54, 0 0" stroke="#000000" stroke-width="1" fill="none"></path></g><g transform="translate(1150.167647993475 159.9574270305095) rotate(0 51.449981689453125 16.80000000000001)"><text x="51.449981689453125" y="0" font-family="Virgil, Segoe UI Emoji" font-size="28px" fill="#000000" text-anchor="middle" style="white-space: pre;" direction="ltr" dominant-baseline="text-before-edge">Website</text></g><g stroke-linecap="round" transform="translate(712.4890535144282 113.51604490144109) rotate(0 109 46.5)"><path d="M23.25 0 C71.35 -1.31, 117.87 -1.7, 194.75 0 M23.25 0 C77.49 1.02, 132.03 0.27, 194.75 0 M194.75 0 C212.17 -0.16, 218.3 6.08, 218 23.25 M194.75 0 C211.04 1.91, 218.68 8.35, 218 23.25 M218 23.25 C219.76 33.72, 217.52 42.19, 218 69.75 M218 23.25 C217.38 41.47, 218.72 59, 218 69.75 M218 69.75 C218.05 86.87, 209.02 92.66, 194.75 93 M218 69.75 C217.38 84.87, 209.94 91.65, 194.75 93 M194.75 93 C158.09 93.36, 123.4 94.38, 23.25 93 M194.75 93 C132.27 95.01, 70.41 94.63, 23.25 93 M23.25 93 C9.66 94.11, -1.56 86.29, 0 69.75 M23.25 93 C9.31 92.03, 2.11 86.04, 0 69.75 M0 69.75 C1.38 60.09, -1.65 51.07, 0 23.25 M0 69.75 C-0.71 55.47, -0.32 40.38, 0 23.25 M0 23.25 C1.93 6.95, 7.56 1.14, 23.25 0 M0 23.25 C-1.42 7.47, 6.55 -0.13, 23.25 0" stroke="#000000" stroke-width="1" fill="none"></path></g><g transform="translate(729.9430940417719 143.21604490144108) rotate(0 91.54595947265625 16.799999999999983)"><text x="91.54595947265625" y="0" font-family="Virgil, Segoe UI Emoji" font-size="28px" fill="#000000" text-anchor="middle" style="white-space: pre;" direction="ltr" dominant-baseline="text-before-edge">GraphQL API</text></g><g stroke-linecap="round"><g transform="translate(822.9651539767619 301.1959775264364) rotate(0 -0.04459614963059266 -46.69189480858148)"><path d="M0 0 C0 -24.3, -0.21 -48.83, 0 -93.38 M0 0 C0.02 -28.57, -0.09 -57.23, 0 -93.38" stroke="#000000" stroke-width="1" fill="none"></path></g><g transform="translate(822.9651539767619 301.1959775264364) rotate(0 -0.04459614963059266 -46.69189480858148)"><path d="M10.23 -65.18 C7.58 -72.42, 4.7 -79.88, 0 -93.38 M10.23 -65.18 C7.2 -73.83, 3.96 -82.56, 0 -93.38" stroke="#000000" stroke-width="1" fill="none"></path></g><g transform="translate(822.9651539767619 301.1959775264364) rotate(0 -0.04459614963059266 -46.69189480858148)"><path d="M-10.29 -65.21 C-7.57 -72.42, -5.08 -79.88, 0 -93.38 M-10.29 -65.21 C-7.04 -73.82, -4.01 -82.55, 0 -93.38" stroke="#000000" stroke-width="1" fill="none"></path></g></g><mask></mask><g stroke-linecap="round" transform="translate(1122.3912414314627 281.1323014161417) rotate(0 82 51.5)"><path d="M0 0 C38.64 -0.35, 79.64 0.82, 164 0 M0 0 C37.87 -0.7, 75.78 0.97, 164 0 M164 0 C165.05 34.79, 165.85 68.82, 164 103 M164 0 C163.69 27.72, 163.43 54.89, 164 103 M164 103 C102.8 101.81, 38 102.5, 0 103 M164 103 C116.59 101.13, 71.55 101.4, 0 103 M0 103 C1.59 74.22, 1.82 46.09, 0 0 M0 103 C0.5 65.23, -1.24 26.85, 0 0" stroke="#000000" stroke-width="1" fill="none"></path></g><g transform="translate(1134.2512725593924 315.8323014161417) rotate(0 70.13996887207031 16.80000000000001)"><text x="70.13996887207031" y="0" font-family="Virgil, Segoe UI Emoji" font-size="28px" fill="#000000" text-anchor="middle" style="white-space: pre;" direction="ltr" dominant-baseline="text-before-edge">Mobile app</text></g><g stroke-linecap="round" transform="translate(49.89870956520281 128.96934689707086) rotate(0 78.5 51.5)"><path d="M0 0 C50 0.58, 102.63 -1.04, 157 0 M0 0 C34.32 -1.05, 67.1 -0.92, 157 0 M157 0 C157.15 35.15, 159.69 70.06, 157 103 M157 0 C157.31 32.33, 156.5 67.26, 157 103 M157 103 C119.24 102.31, 80.97 100.7, 0 103 M157 103 C123.91 101.69, 91.57 102.63, 0 103 M0 103 C0.67 75.1, -0.1 47.35, 0 0 M0 103 C1.48 65.94, 1.72 30.07, 0 0" stroke="#000000" stroke-width="1" fill="none"></path></g><g transform="translate(68.87073257545671 146.86934689707084) rotate(0 59.527976989746094 33.60000000000002)"><text x="59.527976989746094" y="0" font-family="Virgil, Segoe UI Emoji" font-size="28px" fill="#000000" text-anchor="middle" style="white-space: pre;" direction="ltr" dominant-baseline="text-before-edge">Smart </text><text x="59.527976989746094" y="33.6" font-family="Virgil, Segoe UI Emoji" font-size="28px" fill="#000000" text-anchor="middle" style="white-space: pre;" direction="ltr" dominant-baseline="text-before-edge">contract</text></g><g stroke-linecap="round" transform="translate(48.2373020717323 284.8803397934835) rotate(0 78.5 51.5)"><path d="M0 0 C60.51 0.45, 126.02 0.36, 157 0 M0 0 C51.62 0.17, 102.86 -0.95, 157 0 M157 0 C158.42 29.23, 157.76 62.14, 157 103 M157 0 C156.41 21.48, 156.76 43.15, 157 103 M157 103 C110.17 102.53, 65.68 101.04, 0 103 M157 103 C114.41 104.76, 72.15 104.72, 0 103 M0 103 C0.77 65.99, 0.69 33.45, 0 0 M0 103 C-1.82 77.14, -0.36 50.73, 0 0" stroke="#000000" stroke-width="1" fill="none"></path></g><g transform="translate(67.20932508198621 302.78033979348345) rotate(0 59.527976989746094 33.60000000000002)"><text x="59.527976989746094" y="0" font-family="Virgil, Segoe UI Emoji" font-size="28px" fill="#000000" text-anchor="middle" style="white-space: pre;" direction="ltr" dominant-baseline="text-before-edge">Smart </text><text x="59.527976989746094" y="33.6" font-family="Virgil, Segoe UI Emoji" font-size="28px" fill="#000000" text-anchor="middle" style="white-space: pre;" direction="ltr" dominant-baseline="text-before-edge">contract</text></g><g transform="translate(591.0322175294832 243.46855084193157) rotate(0 80.6599349975586 12)"><text x="80.6599349975586" y="0" font-family="Virgil, Segoe UI Emoji" font-size="20px" fill="#000000" text-anchor="middle" style="white-space: pre;" direction="ltr" dominant-baseline="text-before-edge">Application data</text></g></svg>