<svg height="18" viewBox="0 0 325 68" fill="none" xmlns="http://www.w3.org/2000/svg">
<path d="M0.193132 67V2.76916H25.521C45.6558 2.76916 54.5844 9.51112 54.5844 26.1838C54.5844 42.6743 45.6558 49.4162 25.521 49.4162H16.7747V67H0.193132ZM16.7747 34.9301H26.5232C34.5407 34.9301 38.0939 32.7436 38.0939 26.1838C38.0939 19.4418 34.5407 17.2553 26.5232 17.2553H16.7747V34.9301ZM56.2257 43.8587C56.2257 27.5504 67.9786 19.9885 82.4647 19.9885C96.7686 19.9885 108.613 27.5504 108.613 43.8587C108.613 60.3491 96.7686 67.9111 82.4647 67.9111C67.9786 67.9111 56.2257 60.3491 56.2257 43.8587ZM71.8051 43.8587C71.8051 50.7829 76.0872 54.1538 82.4647 54.1538C88.66 54.1538 92.9421 50.7829 92.9421 43.8587C92.9421 37.0256 88.66 33.7457 82.4647 33.7457C76.0872 33.7457 71.8051 37.0256 71.8051 43.8587ZM113.71 67V20.8996H129.29V26.0927L126.374 34.7479H130.201C132.023 26.5482 137.672 19.9885 147.511 19.9885C159.446 19.9885 166.826 27.9148 166.826 42.4921V67H151.156V45.0431C151.156 36.7523 148.878 33.7457 141.954 33.7457C134.392 33.7457 129.29 37.2989 129.29 50.3273V67H113.71ZM191.14 67.9111C177.656 67.9111 171.279 56.796 171.279 43.8587C171.279 31.0125 177.656 19.9885 191.14 19.9885C202.62 19.9885 206.72 25.8194 209.089 31.7414H213.006L210 23.0861V0.0359315H225.579V67H210V64.8134L213.006 56.0671H209.089C206.72 62.0802 202.62 67.9111 191.14 67.9111ZM186.858 43.8587C186.858 51.0562 190.867 54.1538 198.52 54.1538C206.173 54.1538 210 51.1473 210 43.8587C210 36.7523 206.173 33.7457 198.52 33.7457C190.867 33.7457 186.858 36.7523 186.858 43.8587ZM230.661 43.7676C230.661 28.917 240.865 19.9885 255.169 19.9885C271.113 19.9885 280.315 28.6437 280.315 43.1298V47.2297H246.332C246.878 52.9694 250.249 56.1582 255.898 56.1582C260.727 56.1582 264.006 54.2449 264.918 50.6917H280.406C279.13 60.8958 270.111 67.9111 255.898 67.9111C240.319 67.9111 230.661 58.1626 230.661 43.7676ZM246.332 39.2122H265.1C264.644 34.1102 261.091 31.2858 255.625 31.2858C250.249 31.2858 246.696 34.1102 246.332 39.2122ZM285.752 28.8259C285.752 23.6328 288.667 20.8996 293.861 20.8996H324.746V34.6568H301.423V67H285.752V28.8259Z" fill="#02121A"/>
</svg>
