<svg version="1.0" xmlns="http://www.w3.org/2000/svg"
 width="24" height="24" viewBox="0 0 2108.000000 2108.000000"
 preserveAspectRatio="xMidYMid meet">
<g transform="translate(0.000000,2108.000000) scale(0.100000,-0.100000)"
fill="#000000" stroke="none">
<path d="M10035 21070 c-1486 -76 -2898 -446 -4208 -1101 -2483 -1243 -4385
-3427 -5273 -6052 -296 -875 -464 -1725 -534 -2707 -6 -80 -13 -305 -17 -500
-12 -719 43 -1386 173 -2093 431 -2358 1674 -4511 3514 -6088 1440 -1235 3205
-2062 5075 -2379 560 -95 1018 -137 1605 -147 719 -12 1386 43 2093 173 2358
431 4511 1674 6088 3514 1235 1440 2062 3205 2379 5075 95 560 137 1018 147
1605 36 2162 -581 4253 -1784 6043 -1287 1915 -3186 3370 -5358 4106 -893 303
-1715 467 -2720 541 -188 14 -968 21 -1180 10z m5675 -5967 c226 -53 380 -209
439 -444 30 -117 44 -271 37 -384 -10 -153 -65 -591 -136 -1090 -11 -77 -29
-205 -40 -285 -11 -80 -22 -155 -25 -167 -3 -12 -23 -143 -44 -290 -57 -386
-106 -714 -146 -978 -102 -663 -128 -830 -145 -940 -10 -66 -28 -183 -40 -260
-22 -147 -26 -167 -90 -575 -22 -140 -42 -271 -45 -290 -3 -19 -18 -118 -35
-220 -16 -102 -38 -243 -49 -315 -19 -128 -53 -343 -131 -825 -80 -501 -114
-730 -155 -1070 -55 -461 -123 -862 -181 -1080 -75 -277 -193 -509 -338 -659
-110 -113 -200 -168 -351 -214 -101 -31 -332 -30 -460 2 -324 79 -660 255
-1118 585 -296 213 -454 321 -977 670 -316 211 -703 468 -860 571 -520 343
-1074 711 -1180 785 -173 120 -263 218 -325 354 -44 96 -56 153 -56 257 0 191
86 376 263 565 54 58 247 240 373 353 357 320 478 431 715 656 52 49 169 160
260 245 91 85 210 198 265 250 55 52 172 163 260 245 87 83 247 233 355 335
108 102 344 325 525 495 519 488 814 795 868 904 26 54 30 141 7 185 -22 43
-80 85 -130 94 -99 18 -169 -9 -390 -151 -152 -98 -865 -571 -1045 -694 -256
-174 -392 -268 -497 -342 -132 -93 -593 -415 -743 -518 -115 -79 -424 -286
-655 -439 -164 -108 -415 -283 -730 -509 -1022 -734 -1495 -960 -2005 -958
-154 0 -242 14 -413 64 -59 18 -120 35 -137 39 -16 4 -91 24 -165 45 -74 20
-358 93 -630 161 -1256 317 -1561 447 -1635 698 -20 65 -19 102 3 174 25 77
76 154 154 228 132 126 204 164 898 468 526 232 845 371 1260 551 212 92 450
195 530 230 152 66 384 167 555 240 55 23 219 94 365 158 146 63 450 194 675
292 226 97 491 212 590 255 99 43 243 105 320 138 77 33 293 126 480 207 187
81 403 174 480 207 77 32 160 68 185 78 38 17 561 233 835 345 44 18 213 88
375 155 162 67 358 148 435 180 143 59 411 170 725 300 96 40 200 83 230 95
30 12 123 50 205 85 309 129 425 176 960 385 94 37 271 107 395 157 287 115
362 142 474 172 96 26 241 53 316 60 74 6 221 -4 290 -21z"/>
</g>
</svg>
