<svg width="49" height="63" viewBox="0 0 49 63" fill="none" xmlns="http://www.w3.org/2000/svg">
<path d="M24.9492 40.6992H9.00781V30.6445H24.9492C27.4128 30.6445 29.418 30.2435 30.9648 29.4414C32.5117 28.6107 33.6432 27.4648 34.3594 26.0039C35.0755 24.543 35.4336 22.8958 35.4336 21.0625C35.4336 19.2005 35.0755 17.4674 34.3594 15.8633C33.6432 14.2591 32.5117 12.9701 30.9648 11.9961C29.418 11.0221 27.4128 10.5352 24.9492 10.5352H13.4766V63H0.585938V0.4375H24.9492C29.8477 0.4375 34.0443 1.32552 37.5391 3.10156C41.0625 4.84896 43.7552 7.26953 45.6172 10.3633C47.4792 13.457 48.4102 16.9948 48.4102 20.9766C48.4102 25.0156 47.4792 28.5104 45.6172 31.4609C43.7552 34.4115 41.0625 36.6888 37.5391 38.293C34.0443 39.8971 29.8477 40.6992 24.9492 40.6992Z" fill="#F3F4F6"/>
</svg>
