<svg version="1.1" xmlns="http://www.w3.org/2000/svg" viewBox="0 0 1328.8486184370786 450.718252212311" width="2657.697236874157" height="901.436504424622">
  <!-- svg-source:excalidraw -->
  
  <defs>
    <style class="style-fonts">
      @font-face {
        font-family: "Virgil";
        src: url("https://excalidraw.com/Virgil.woff2");
      }
      @font-face {
        font-family: "Cascadia";
        src: url("https://excalidraw.com/Cascadia.woff2");
      }
    </style>
  </defs>
  <rect x="0" y="0" width="1328.8486184370786" height="450.718252212311" fill="#fff"></rect><g stroke-linecap="round" transform="translate(371.500639380536 10.316734582053073) rotate(0 291.5 215.00000000000006)"><path d="M32 0 M32 0 C151.64 -0.31, 271.29 -0.1, 551 0 M32 0 C199.2 1.06, 365.98 1.31, 551 0 M551 0 C571.66 -0.87, 583.68 12.52, 583 32 M551 0 C571.05 -1.85, 584.67 10.65, 583 32 M583 32 C585.73 143.4, 583.95 253.74, 583 398 M583 32 C582.99 166.69, 582.87 301.63, 583 398 M583 398 C583.7 419.99, 571.35 431.66, 551 430 M583 398 C582.51 420.28, 571.11 430.28, 551 430 M551 430 C393.27 429.16, 235.36 429.86, 32 430 M551 430 C436.27 430.28, 321.52 429.95, 32 430 M32 430 C12.25 428.1, 1.4 420.58, 0 398 M32 430 C10.89 427.94, 0.38 420.63, 0 398 M0 398 C-0.35 271.92, -1.92 146.32, 0 32 M0 398 C-0.65 268.36, -1.21 140.15, 0 32 M0 32 C-0.05 9.11, 10.58 -1.62, 32 0 M0 32 C-0.91 9.29, 9.21 1.33, 32 0" stroke="#000000" stroke-width="1" fill="none"></path></g><g transform="translate(604.8966583624696 28.877221235554657) rotate(0 58.103981018066406 21.599999999999966)"><text x="58.103981018066406" y="0" font-family="Virgil, Segoe UI Emoji" font-size="36px" fill="#000000" text-anchor="middle" style="white-space: pre;" direction="ltr" dominant-baseline="text-before-edge">Ponder</text></g><g stroke-linecap="round" transform="translate(417.2927509272505 113.0193767975586) rotate(0 119.5 46.5)"><path d="M23.25 0 M23.25 0 C76.69 -0.78, 128.19 -1.51, 215.75 0 M23.25 0 C69.09 1.95, 115.02 1.01, 215.75 0 M215.75 0 C231.26 -0.53, 239.16 8.97, 239 23.25 M215.75 0 C229.91 -1.56, 237.43 6.06, 239 23.25 M239 23.25 C238.2 36.2, 239.47 45.98, 239 69.75 M239 23.25 C239.51 35.49, 239.57 47.77, 239 69.75 M239 69.75 C238.2 84.42, 232.26 94.85, 215.75 93 M239 69.75 C236.81 83.04, 229.37 94.38, 215.75 93 M215.75 93 C150.39 93.19, 82.68 89.92, 23.25 93 M215.75 93 C157.6 94.54, 99.99 95.2, 23.25 93 M23.25 93 C7.71 94.68, -1.25 85.25, 0 69.75 M23.25 93 C7.37 91.01, 0.79 84.85, 0 69.75 M0 69.75 C0.39 54.8, -1.52 36.74, 0 23.25 M0 69.75 C-0.3 56.77, -1.2 45.93, 0 23.25 M0 23.25 C-1.81 9.68, 9.4 -0.88, 23.25 0 M0 23.25 C0.52 6.52, 7.02 1.84, 23.25 0" stroke="#000000" stroke-width="1" fill="none"></path></g><g transform="translate(435.2087970698286 142.71937679755865) rotate(0 101.58395385742188 16.799999999999955)"><text x="101.58395385742188" y="0" font-family="Virgil, Segoe UI Emoji" font-size="28px" fill="#000000" text-anchor="middle" style="white-space: pre;" direction="ltr" dominant-baseline="text-before-edge">Event handlers</text></g><g stroke-linecap="round" transform="translate(10 10) rotate(0 118 214.45763999795645)"><path d="M32 0 M32 0 C68.4 3.36, 103.52 -0.3, 204 0 M32 0 C74.27 0.06, 115.61 -0.1, 204 0 M204 0 C226.59 -1.89, 235.26 11.92, 236 32 M204 0 C225.38 0.69, 236.66 10.3, 236 32 M236 32 C236.54 115.53, 236.04 198.37, 236 396.92 M236 32 C235.13 167.66, 235.45 303.94, 236 396.92 M236 396.92 C237.41 417.22, 227 427.79, 204 428.92 M236 396.92 C238.19 416.83, 227.27 428.34, 204 428.92 M204 428.92 C156.65 430.3, 111.31 427.25, 32 428.92 M204 428.92 C164 429.13, 124.07 428.73, 32 428.92 M32 428.92 C11.94 428.72, 0.92 417.74, 0 396.92 M32 428.92 C12.53 430.9, -2.03 418.16, 0 396.92 M0 396.92 C-2.61 308.53, -1.74 222.2, 0 32 M0 396.92 C1.09 271.11, 1.15 146.19, 0 32 M0 32 C1.02 9.31, 11.49 -1.61, 32 0 M0 32 C-1.32 12.71, 8.39 -2.27, 32 0" stroke="#000000" stroke-width="1" fill="none"></path></g><g transform="translate(41.453859685848954 32.079455637069714) rotate(0 87.87596893310544 21.600000000000023)"><text x="87.87596893310547" y="0" font-family="Virgil, Segoe UI Emoji" font-size="36px" fill="#000000" text-anchor="middle" style="white-space: pre;" direction="ltr" dominant-baseline="text-before-edge">Blockchain</text></g><g stroke-linecap="round"><g transform="translate(245.42306876126975 159.14811149720276) rotate(0 84.84398371985026 1.3456291379558252)"><path d="M-0.4 1.91 C62.87 0.33, 121.86 -0.46, 168.64 2.24 M-0.1 0.9 C55.79 -0.05, 110.35 0.66, 170.09 1.56" stroke="#000000" stroke-width="1" fill="none"></path></g><g transform="translate(245.42306876126975 159.14811149720276) rotate(0 84.84398371985026 1.3456291379558252)"><path d="M141.36 13.34 C153.21 7.79, 160.72 2.75, 168.66 1.97 M141.66 12.33 C151.47 8.28, 159.98 5.18, 170.12 1.29" stroke="#000000" stroke-width="1" fill="none"></path></g><g transform="translate(245.42306876126975 159.14811149720276) rotate(0 84.84398371985026 1.3456291379558252)"><path d="M141.64 -7.18 C153.3 -5.28, 160.72 -2.86, 168.66 1.97 M141.94 -8.19 C151.73 -5.57, 160.15 -2, 170.12 1.29" stroke="#000000" stroke-width="1" fill="none"></path></g></g><mask></mask><g transform="translate(262.9625349299382 171.05950282497247) rotate(0 46.62995910644531 36)"><text x="46.62995910644531" y="0" font-family="Virgil, Segoe UI Emoji" font-size="20px" fill="#000000" text-anchor="middle" style="white-space: pre;" direction="ltr" dominant-baseline="text-before-edge">Raw</text><text x="46.62995910644531" y="24" font-family="Virgil, Segoe UI Emoji" font-size="20px" fill="#000000" text-anchor="middle" style="white-space: pre;" direction="ltr" dominant-baseline="text-before-edge">blockchain</text><text x="46.62995910644531" y="48" font-family="Virgil, Segoe UI Emoji" font-size="20px" fill="#000000" text-anchor="middle" style="white-space: pre;" direction="ltr" dominant-baseline="text-before-edge">data</text></g><g stroke-linecap="round" transform="translate(418.6588270612191 302.22630462631173) rotate(0 245 46.5)"><path d="M23.25 0 M23.25 0 C114.79 0.78, 205.72 1, 466.75 0 M23.25 0 C123.45 2.02, 222.61 1.14, 466.75 0 M466.75 0 C480.39 -1.38, 491.44 7.15, 490 23.25 M466.75 0 C484.28 0.57, 489.64 5.71, 490 23.25 M490 23.25 C488.27 39.2, 489.08 58.75, 490 69.75 M490 23.25 C490.84 36.47, 491.16 49.64, 490 69.75 M490 69.75 C490.39 86.77, 480.39 94.48, 466.75 93 M490 69.75 C488.07 86.95, 484.34 94.6, 466.75 93 M466.75 93 C296.03 95.05, 125.68 94.13, 23.25 93 M466.75 93 C309.27 93.03, 151.45 93.05, 23.25 93 M23.25 93 C7.75 91.43, -0.26 84.82, 0 69.75 M23.25 93 C5.95 92.99, 2.3 83.4, 0 69.75 M0 69.75 C-0.49 56.69, -1.63 45.56, 0 23.25 M0 69.75 C0.64 59.43, -0.68 48.91, 0 23.25 M0 23.25 C-1.7 9.14, 6.69 -0.78, 23.25 0 M0 23.25 C-1.85 6.42, 8.21 1.18, 23.25 0" stroke="#000000" stroke-width="1" fill="none"></path></g><g transform="translate(594.4428465314339 331.9263046263118) rotate(0 69.21598052978516 16.799999999999955)"><text x="69.21598052978516" y="0" font-family="Virgil, Segoe UI Emoji" font-size="28px" fill="#000000" text-anchor="middle" style="white-space: pre;" direction="ltr" dominant-baseline="text-before-edge">Database</text></g><g stroke-linecap="round"><g transform="translate(536.0750617029424 207.29673521420955) rotate(0 -0.33960333438091084 47.382320148910026)"><path d="M0.99 1.88 C-2.2 20.89, -1.2 41.21, -1.67 93.38 M0.15 0.16 C0.54 20.16, 0.08 39.49, 0.45 94.61" stroke="#000000" stroke-width="1" fill="none"></path></g><g transform="translate(536.0750617029424 207.29673521420955) rotate(0 -0.33960333438091084 47.382320148910026)"><path d="M-8.92 68.34 C-9.39 73.37, -6.17 79.79, -1.1 94.06 M-9.76 66.61 C-7.81 72.71, -6.06 78.21, 1.03 95.29" stroke="#000000" stroke-width="1" fill="none"></path></g><g transform="translate(536.0750617029424 207.29673521420955) rotate(0 -0.33960333438091084 47.382320148910026)"><path d="M11.6 68.26 C6.79 73.47, 5.68 79.91, -1.1 94.06 M10.76 66.54 C8.4 72.78, 5.83 78.3, 1.03 95.29" stroke="#000000" stroke-width="1" fill="none"></path></g></g><mask></mask><g stroke-linecap="round" transform="translate(1085.7866012286822 10.447339616776503) rotate(0 116.53100860419829 215.13545629776723)"><path d="M32 0 M32 0 C97.04 1.34, 163.08 -0.91, 201.06 0 M32 0 C69.76 -1.76, 107.82 -0.55, 201.06 0 M201.06 0 C224.12 1.96, 234.06 8.95, 233.06 32 M201.06 0 C220.78 1.51, 233.5 11.23, 233.06 32 M233.06 32 C232.01 157.58, 231.27 284.73, 233.06 398.27 M233.06 32 C233.23 142.47, 233.13 252.5, 233.06 398.27 M233.06 398.27 C234.54 418.39, 223.7 429.57, 201.06 430.27 M233.06 398.27 C234.25 419.46, 221.32 429.73, 201.06 430.27 M201.06 430.27 C146.56 430.79, 93.47 430.09, 32 430.27 M201.06 430.27 C148.37 431.19, 97.55 431.71, 32 430.27 M32 430.27 C11.49 430.44, -1.5 420.33, 0 398.27 M32 430.27 C10.84 429.78, 0.01 417.34, 0 398.27 M0 398.27 C0.87 279.94, 1.26 159.21, 0 32 M0 398.27 C0.41 289.71, 0.7 179.64, 0 32 M0 32 C0.9 9.86, 10.87 -1.72, 32 0 M0 32 C2.12 9.5, 9.66 1.93, 32 0" stroke="#000000" stroke-width="1" fill="none"></path></g><g transform="translate(1109.3307781530812 32.860723689191786) rotate(0 91.76395416259766 21.599999999999966)"><text x="91.76395416259766" y="0" font-family="Virgil, Segoe UI Emoji" font-size="36px" fill="#000000" text-anchor="middle" style="white-space: pre;" direction="ltr" dominant-baseline="text-before-edge">Application</text></g><g transform="translate(968.2199484867957 178.66949516258614) rotate(0 50.979949951171875 24)"><text x="50.979949951171875" y="0" font-family="Virgil, Segoe UI Emoji" font-size="20px" fill="#000000" text-anchor="middle" style="white-space: pre;" direction="ltr" dominant-baseline="text-before-edge">Application</text><text x="50.979949951171875" y="24" font-family="Virgil, Segoe UI Emoji" font-size="20px" fill="#000000" text-anchor="middle" style="white-space: pre;" direction="ltr" dominant-baseline="text-before-edge">data</text></g><g stroke-linecap="round"><g transform="translate(915.490783361461 163.4286201298055) rotate(0 85.06795595067751 -0.07814261773921771)"><path d="M0.91 0.4 C37.88 0.44, 73.77 2.67, 167.36 -1.14 M0.29 -0.16 C60.62 -0.18, 122.2 -1.24, 169.85 -1.24" stroke="#000000" stroke-width="1" fill="none"></path></g><g transform="translate(915.490783361461 163.4286201298055) rotate(0 85.06795595067751 -0.07814261773921771)"><path d="M142.62 9.56 C149.46 6.14, 155.17 6.23, 167.95 -1.98 M142 9 C151.18 5.78, 161.6 1.09, 170.44 -2.08" stroke="#000000" stroke-width="1" fill="none"></path></g><g transform="translate(915.490783361461 163.4286201298055) rotate(0 85.06795595067751 -0.07814261773921771)"><path d="M142.51 -10.96 C149.27 -9.99, 154.99 -5.51, 167.95 -1.98 M141.89 -11.53 C151.11 -7.3, 161.58 -4.55, 170.44 -2.08" stroke="#000000" stroke-width="1" fill="none"></path></g></g><mask></mask><g stroke-linecap="round" transform="translate(1120.117629682928 125.25742703050969) rotate(0 81.5 51.5)"><path d="M-1.02 -0.93 C65.93 0.26, 128.8 -1.04, 162.23 -1.36 M0.32 0.67 C54.64 -0.21, 108.82 -1.1, 162.09 0.6 M164.95 1.8 C163.76 23.66, 162.03 47.93, 163.8 102.89 M163.7 0.59 C162.65 27.14, 163 55.98, 162.79 102.18 M164.02 101.66 C99.07 104.12, 36.51 104.21, 0.18 103.76 M162.68 104 C125.24 100.63, 85.05 101.75, 0.22 103.43 M0.79 102.87 C1.95 78.75, 1.21 56.53, -1.02 1.81 M0.29 103.08 C-1.66 79.06, -0.02 54.64, 0.44 0.81" stroke="#000000" stroke-width="1" fill="none"></path></g><g transform="translate(1150.167647993475 159.95742703050973) rotate(0 51.449981689453125 16.799999999999955)"><text x="51.449981689453125" y="0" font-family="Virgil, Segoe UI Emoji" font-size="28px" fill="#000000" text-anchor="middle" style="white-space: pre;" direction="ltr" dominant-baseline="text-before-edge">Website</text></g><g stroke-linecap="round" transform="translate(696.0001383928858 113.51604490144064) rotate(0 109 46.5)"><path d="M23.25 0 M23.25 0 C64.8 3.19, 108.59 1.88, 194.75 0 M23.25 0 C81.54 0.73, 138.74 -0.44, 194.75 0 M194.75 0 C210.49 0.43, 217.49 8.34, 218 23.25 M194.75 0 C210.34 -2, 217.48 9.54, 218 23.25 M218 23.25 C216.12 40.07, 218.95 57.72, 218 69.75 M218 23.25 C218.39 42.02, 218.98 59.91, 218 69.75 M218 69.75 C219.31 86.19, 210.65 93.44, 194.75 93 M218 69.75 C217.96 84.53, 210.08 94.91, 194.75 93 M194.75 93 C146.43 92.26, 98.34 93.12, 23.25 93 M194.75 93 C159.8 94.58, 124.81 93.67, 23.25 93 M23.25 93 C8.91 91.47, -1.1 84.27, 0 69.75 M23.25 93 C5.46 91.32, -0.09 86.97, 0 69.75 M0 69.75 C-1.29 55.16, -2.19 45.76, 0 23.25 M0 69.75 C0.64 57.81, -0.33 45.6, 0 23.25 M0 23.25 C0.44 7.47, 9.64 1.91, 23.25 0 M0 23.25 C-1 8.26, 5.94 1.27, 23.25 0" stroke="#000000" stroke-width="1" fill="none"></path></g><g transform="translate(713.4541789202295 143.21604490144068) rotate(0 91.54595947265625 16.799999999999955)"><text x="91.54595947265625" y="0" font-family="Virgil, Segoe UI Emoji" font-size="28px" fill="#000000" text-anchor="middle" style="white-space: pre;" direction="ltr" dominant-baseline="text-before-edge">GraphQL API</text></g><g stroke-linecap="round"><g transform="translate(810.0167889105336 299.94831275530487) rotate(0 -0.21895084136440346 -45.928209234247674)"><path d="M-1.43 0 C-0.49 -31.44, 0.86 -60.6, -0.64 -91.11 M0.91 -0.56 C1.29 -24.25, 0.25 -50.78, -0.91 -91.86" stroke="#000000" stroke-width="1" fill="none"></path></g><g transform="translate(810.0167889105336 299.94831275530487) rotate(0 -0.21895084136440346 -45.928209234247674)"><path d="M8.74 -63.98 C5.99 -74.62, 3.77 -83.04, -1.51 -90.83 M11.08 -64.54 C8.21 -70.71, 4.17 -79.79, -1.78 -91.57" stroke="#000000" stroke-width="1" fill="none"></path></g><g transform="translate(810.0167889105336 299.94831275530487) rotate(0 -0.21895084136440346 -45.928209234247674)"><path d="M-11.77 -63.38 C-7.9 -74.33, -3.5 -82.95, -1.51 -90.83 M-9.43 -63.94 C-6.73 -70.4, -5.2 -79.64, -1.78 -91.57" stroke="#000000" stroke-width="1" fill="none"></path></g></g><mask></mask><g stroke-linecap="round" transform="translate(1122.3912414314627 281.1323014161417) rotate(0 82 51.5)"><path d="M-0.51 1.21 C56.61 -2.78, 115.06 0.64, 163.92 -1.62 M-0.86 -0.34 C35.95 -1.69, 71.02 0.2, 163.67 0.93 M165.06 0.33 C164.1 31.64, 162.56 64.63, 162.21 102.84 M163.19 0 C164.04 23.57, 163.59 47.1, 163.95 103.04 M165.71 104.77 C124.08 102.02, 84.64 102.32, 1.25 104.98 M163.87 102.75 C126.71 104.18, 89.8 103.98, -0.9 102.92 M1 101.86 C-1.32 71.58, 0.94 38.8, -1.57 -1.12 M-0.12 102.65 C0.12 70.24, -1.18 36.77, 0.3 0.5" stroke="#000000" stroke-width="1" fill="none"></path></g><g transform="translate(1134.2512725593924 315.8323014161417) rotate(0 70.13996887207031 16.799999999999955)"><text x="70.13996887207031" y="0" font-family="Virgil, Segoe UI Emoji" font-size="28px" fill="#000000" text-anchor="middle" style="white-space: pre;" direction="ltr" dominant-baseline="text-before-edge">Mobile app</text></g><g stroke-linecap="round" transform="translate(49.89870956520298 128.96934689707064) rotate(0 78.49999999999997 51.5)"><path d="M0.24 1.17 C52.14 1.43, 106.86 0.59, 158.72 0.08 M-0.35 -0.62 C55.6 -1.17, 109.48 -0.24, 157.96 -0.77 M155.14 1.78 C157.43 30.57, 155.62 57.06, 157.41 104.12 M156.22 -0.23 C157 27.55, 156.51 54.65, 156.94 102.59 M157.25 103.67 C124.34 103.93, 89.59 103.44, 1.91 104.5 M156.72 103.84 C123.58 102.97, 89.34 103.21, -0.04 102.59 M0.98 102.7 C-0.66 73.8, 0.8 47.37, 0.34 -0.5 M-0.52 103.47 C0.12 80.94, 0.01 57.78, 0.78 -0.09" stroke="#000000" stroke-width="1" fill="none"></path></g><g transform="translate(68.87073257545688 146.86934689707073) rotate(0 59.527976989746065 33.60000000000002)"><text x="59.527976989746094" y="0" font-family="Virgil, Segoe UI Emoji" font-size="28px" fill="#000000" text-anchor="middle" style="white-space: pre;" direction="ltr" dominant-baseline="text-before-edge">Smart </text><text x="59.527976989746094" y="33.6" font-family="Virgil, Segoe UI Emoji" font-size="28px" fill="#000000" text-anchor="middle" style="white-space: pre;" direction="ltr" dominant-baseline="text-before-edge">contract</text></g><g stroke-linecap="round" transform="translate(48.23730207173219 284.880339793483) rotate(0 78.5 51.5)"><path d="M0.09 0.72 C35.38 1.37, 67.07 2.37, 155.98 -1.52 M0.94 -0.1 C54.22 1.3, 109.43 1.8, 156.18 0.56 M157.69 -0.37 C158.8 26.11, 157.48 56.99, 157.16 104.27 M157.41 -0.31 C156.48 26.96, 155.92 54.17, 156.04 103.15 M157.73 103.82 C113.33 102.15, 69.52 102.72, -0.92 102.23 M156.97 103.64 C114.54 102.23, 72.43 102.17, 0.93 102.03 M-1.39 103.44 C0.7 72.68, 2.52 40.68, -0.34 0.1 M0.75 102.42 C0.38 64.91, 0.02 27.23, -0.02 -0.43" stroke="#000000" stroke-width="1" fill="none"></path></g><g transform="translate(67.2093250819861 302.7803397934831) rotate(0 59.527976989746094 33.60000000000002)"><text x="59.527976989746094" y="0" font-family="Virgil, Segoe UI Emoji" font-size="28px" fill="#000000" text-anchor="middle" style="white-space: pre;" direction="ltr" dominant-baseline="text-before-edge">Smart </text><text x="59.527976989746094" y="33.6" font-family="Virgil, Segoe UI Emoji" font-size="28px" fill="#000000" text-anchor="middle" style="white-space: pre;" direction="ltr" dominant-baseline="text-before-edge">contract</text></g><g transform="translate(591.0322175294833 243.4685508419318) rotate(0 80.6599349975586 12)"><text x="80.6599349975586" y="0" font-family="Virgil, Segoe UI Emoji" font-size="20px" fill="#000000" text-anchor="middle" style="white-space: pre;" direction="ltr" dominant-baseline="text-before-edge">Application data</text></g></svg>